<svg width="742" height="233" viewBox="0 0 742 233" fill="none" xmlns="http://www.w3.org/2000/svg">
  <path fill-rule="evenodd" clip-rule="evenodd" d="M0.268005 24.7383L0.535004 49.4733L75.535 49.973L150.535 50.4727L109.535 62.8442C86.985 69.649 55.26 79.2102 39.035 84.0933C22.81 88.9753 8.438 93.7794 7.097 94.7688C5.756 95.7582 3.731 97.8099 2.597 99.328C0.564 102.048 0.535004 102.995 0.535004 167.225V232.362L25.276 232.629L50.016 232.897L50.276 182.772L50.535 132.649L84.503 122.343C103.186 116.675 118.567 112.134 118.684 112.251C118.802 112.368 110.156 117.854 99.471 124.443C88.787 131.031 80.043 136.745 80.04 137.143C80.03 138.496 134.267 225.354 136.85 228.121C138.264 229.636 141.022 231.32 142.978 231.864C144.939 232.407 159.435 232.853 175.285 232.856L204.035 232.862V207.877V182.892H185.272H166.508L144.312 147.164C125.506 116.892 122.377 111.319 123.826 110.667C124.766 110.244 141.285 105.176 160.535 99.406C179.785 93.6345 196.614 88.1198 197.934 87.1504C199.253 86.181 201.179 83.8274 202.214 81.9216C203.969 78.6876 204.077 76.1441 203.815 43.9766C203.54 10.1332 203.494 9.4396 201.305 6.37247C196.502 -0.355448 202.431 0.00333245 96.116 0.00333245H0L0.268005 24.7383ZM226.253 1.66532C224.448 2.55478 221.973 4.68049 220.753 6.38945C218.545 9.48358 218.534 9.71244 218.272 57.9681C218.029 102.62 218.147 106.709 219.772 109.866C223.21 116.547 218.248 114.917 307.035 138.543C328.76 144.325 350.36 150.11 355.035 151.401C359.71 152.693 365.448 154.253 367.785 154.867L372.035 155.986V169.439V182.892H295.018H218L218.268 207.627L218.535 232.362H315.212C411.295 232.362 411.906 232.349 414.65 230.302C416.169 229.168 418.339 227 419.473 225.481C421.49 222.781 421.535 221.654 421.535 173.575V124.428L419.206 121.165C417.925 119.37 415.588 117.235 414.012 116.421C412.437 115.606 395.26 110.701 375.841 105.519C356.423 100.337 324.483 91.7906 304.864 86.5268C285.246 81.263 268.933 76.9566 268.614 76.9566C268.296 76.9566 268.035 70.8853 268.035 63.4648V49.973L317.285 49.999L366.535 50.025L374.812 59.9929C379.364 65.4756 383.414 69.9519 383.812 69.9409C384.744 69.9149 420.431 40.011 420.855 38.9007C421.03 38.44 414.423 30.0031 406.171 20.1531C395.3 7.17698 390.281 1.93516 387.952 1.12365C385.682 0.333134 361.923 0.0103232 307.136 0.0263135C237.7 0.0463014 229.19 0.219196 226.253 1.66532ZM444.055 1.75427C442.141 2.71469 439.553 5.02928 438.305 6.89714L436.035 10.2931V116.213C436.035 222.014 436.037 222.136 438.132 225.522C442.639 232.811 435.584 232.331 542.785 232.631L639.035 232.901V207.896V182.892H562.535H486.035V161.905V140.918H533.535H581.035V115.933V90.9481H533.535H486.035V70.4606V49.973H562.535H639.035V24.9882V0.00333245L543.285 0.00533013C454.122 0.00632953 447.296 0.126257 444.055 1.75427ZM691.035 33.483V57.9681H716.035H741.035V33.483V8.99787H716.035H691.035V33.483ZM696.052 88.8004C694.153 89.8188 691.803 91.7296 690.83 93.0478C689.856 94.367 683.717 115.009 677.187 138.919L665.313 182.393L659.424 182.892L653.535 183.392V207.877V232.362L672.847 232.634C694.22 232.935 698.291 232.291 702.443 227.961C705.176 225.111 709.966 208.991 727.048 145.165L729.254 136.92H735.145H741.035V111.935V86.9505H720.269C701.969 86.9505 699.094 87.1704 696.052 88.8004Z" fill="#FF5D00"/>
</svg>
